<svg version="1.1" xmlns="http://www.w3.org/2000/svg" style="display: block;" viewBox="0 0 1365 2048" width="1024" height="1536">
<path transform="translate(0,0)" fill="rgb(255,255,255)" d="M 0 0 L 1365 0 L 1365 2046.25 C 1363.89 2046.95 1362.81 2047.43 1361.52 2047.72 C 1353.27 2049.59 1318.52 2048 1307.91 2048 L 1154.27 2048.01 L 521.767 2048.02 L 176.585 2048.01 L 63.4564 2048 C 44.2051 2048 24.6702 2048.76 5.45477 2047.88 C 3.34382 2047.78 1.79201 2047.39 0 2046.25 L 0 0 z M 542.013 77.5466 L 541.123 77.6313 C 530.683 78.5402 519.993 77.9442 509.506 78.2119 C 496.061 78.5551 481.709 80.0679 468.446 82.3162 C 438.059 87.467 387.273 111.168 362.28 129.142 C 349.875 138.062 339.019 148.698 327.711 158.919 C 319.733 166.13 311.737 172.655 304.725 180.873 C 297.234 189.652 290.675 199.298 287.194 210.393 C 297.197 240.406 313.697 270.197 327.937 298.472 C 342.944 328.268 357.466 358.507 373.074 387.975 C 357.126 398.606 332.623 410.235 320.356 424.744 C 321.891 431.764 322.677 436.463 329.157 440.606 C 341.872 448.736 363.316 445.21 377.816 445.103 C 368.505 455.131 358.299 464.735 349.786 475.442 C 337.847 490.457 327.628 506.665 317.113 522.677 C 298.932 550.363 281.975 578.273 266.437 607.551 C 260.415 618.898 254.065 630.214 249.224 642.131 C 240.323 664.045 232.947 687.461 233.78 711.331 C 235.319 755.401 263.383 784.473 283.559 821.012 C 298.701 848.435 307.865 877.911 331.556 899.893 C 352.716 919.526 377.636 934.406 407.374 932.946 C 414.264 932.608 421.993 931.952 428.463 929.538 C 431.871 928.267 435.762 925.745 439.277 925.218 C 441.604 924.87 441.717 924.966 443.63 926.346 C 444.033 929.153 443.714 931.705 441.996 934.067 C 438.288 939.165 430.98 940.001 427.16 945.815 C 422.08 953.547 424.722 962.897 422.445 971.295 C 420.288 979.248 414.39 987.686 410.283 994.831 C 395.401 1020.73 382.118 1046.84 368.356 1073.29 C 360.202 1088.97 351.213 1104.07 343.819 1120.16 C 336.307 1136.51 328.524 1153.37 322.271 1170.22 C 316.168 1186.68 311.311 1203.57 305.234 1220 C 298.95 1236.99 290.716 1253.23 284.897 1270.4 C 280.928 1282.12 278.193 1294.19 274.57 1306 C 250.889 1382.95 232.006 1461.29 218.03 1540.57 C 212.775 1568.73 216.707 1598.34 211.627 1626.3 C 211.285 1626.03 210.931 1625.77 210.601 1625.49 C 204.11 1619.89 199.462 1602.21 196.59 1594.22 C 185.4 1563.08 174.026 1532.05 167.195 1499.59 C 162.615 1477.83 159.198 1455.8 154.651 1433.99 C 152.936 1425.76 151.737 1416.63 148.759 1408.8 C 146.906 1403.92 144.541 1399.66 139.301 1397.96 C 135.838 1398.02 134.077 1399.01 131.688 1401.5 C 126.885 1406.51 123.45 1414.11 121.909 1420.81 C 118.048 1437.59 118.86 1482.46 119.753 1500.83 C 120.8 1522.38 121.189 1544.71 123.343 1566.13 C 130.277 1635.06 150.227 1702.35 187.448 1761.03 C 196.843 1775.85 206.924 1793.15 220.423 1804.6 C 221.692 1805.68 223.159 1806.52 224.641 1807.27 C 227.504 1822.69 229.514 1839.53 235.703 1854.08 C 232.405 1856.25 189.011 1856.44 178.206 1858.12 C 163.924 1860.34 150.721 1864.2 137.845 1870.86 C 131.665 1874.05 125.771 1876.55 121.634 1882.35 C 120.89 1883.39 120.137 1884.44 119.375 1885.46 C 118.614 1886.49 118.928 1886.13 117.771 1886.92 C 121.455 1898.6 127.581 1904.13 138.345 1909.68 C 163.743 1922.79 191.145 1926.99 218.6 1933.53 C 292.751 1950.73 367.945 1963.06 443.704 1970.45 C 455.842 1971.51 468.111 1970.94 480.284 1971.53 C 497.974 1972.39 515.52 1974.78 533.232 1975.18 C 547.737 1975.52 562.032 1974.51 576.502 1974.25 C 594.221 1973.93 612.059 1974.35 629.784 1974.45 L 737.597 1976.06 C 751.968 1976.25 766.472 1977.26 780.833 1976.77 C 797.122 1976.21 813.098 1972.99 829.304 1971.68 C 848.996 1970.09 868.875 1971.07 888.576 1969.55 C 904.829 1968.29 920.817 1964.63 937.054 1963.14 C 951.114 1961.86 965.272 1962.15 979.328 1960.89 C 1015.4 1957.64 1056.46 1950.19 1090.94 1938.95 C 1104.65 1934.48 1129.27 1924.71 1135.58 1911.19 C 1137.74 1906.55 1137.51 1901.69 1135.69 1897 C 1131.46 1886.11 1121.2 1878.2 1110.71 1873.86 C 1090.27 1865.4 1039.77 1860.37 1015.68 1858.23 C 1008.29 1857.57 997.068 1859.74 990.52 1856.78 C 984.702 1854.33 980.974 1846.66 975.04 1843.31 C 966.158 1838.3 955.08 1837.4 946.501 1832.41 C 936.759 1835.06 920.923 1828.59 910.725 1827.53 C 895.766 1825.98 854.593 1826.9 844.47 1823.98 L 842.434 1809.27 C 845.21 1805.94 857.972 1777.26 861.462 1770.46 C 883.879 1727.29 902.078 1682.05 915.804 1635.38 C 919.705 1622.36 924.008 1609.01 926.351 1595.6 C 931.715 1564.91 932.385 1533 929.545 1502.03 C 928.563 1491.34 927.333 1478.45 923.373 1468.43 C 920.235 1460.49 915.74 1452.96 913.739 1444.63 C 920.305 1444.91 1000.98 1395.37 1013.26 1388.28 C 1020.48 1384.12 1034.69 1379.52 1040.26 1374.92 C 1040.7 1374.55 1041.31 1373.8 1041.64 1373.42 C 1049.59 1364.42 1051.66 1346.44 1056.31 1335.34 C 1064.58 1315.62 1073.46 1296.02 1082.05 1276.42 C 1114.32 1201.27 1150.49 1127.86 1190.41 1056.49 C 1203.87 1032.02 1217.01 1007.03 1231.29 983.049 C 1235 976.811 1246.28 964.449 1246.05 957.626 C 1245.99 955.87 1245.29 954.783 1244.34 953.359 C 1241.01 951.787 1239.11 951.634 1235.52 952.952 C 1231.65 954.373 1227.9 956.179 1224.16 957.928 C 1228.2 947.373 1232.23 936.728 1237.25 926.587 C 1238.77 923.507 1243.02 919.17 1242.99 915.882 C 1241.57 913.631 1241.07 912.539 1238.24 911.998 C 1230.07 910.441 1220.97 918.593 1212.78 916.592 C 1210.43 911.728 1216.69 906.43 1210.7 902.89 C 1203.35 902.259 1194.21 905.141 1187.04 906.778 C 1143.39 916.733 1110.97 938.532 1077.23 966.947 C 1045.4 993.756 1007.64 1037.38 998.935 1079.23 L 970.798 1048.19 C 971.419 1036.88 974.342 1025.77 974.831 1014.53 C 979.054 1013.75 984.808 1013.04 987.253 1009 C 993.386 998.876 1003.37 939.595 1007.22 923.071 C 1018.44 874.879 1031.06 827.134 1041.43 778.71 C 1044.99 762.077 1050.11 744.738 1051.79 727.831 C 1049.08 723.746 1046.39 720.3 1042.85 716.901 C 1045.69 700.78 1056.81 671.774 1046.34 657.252 C 1042.97 652.583 1037 649.694 1031.36 649.009 C 1026.37 648.403 1021.53 649.677 1017.66 652.931 C 1006.9 661.984 1003.25 690.273 997.339 703.924 C 991.608 705.459 982.988 705.934 979.751 711.495 C 975.071 719.533 973.102 731.621 970.706 740.666 C 962.136 773.99 954.83 807.626 948.806 841.503 C 944.737 864.929 941.743 888.72 937.021 912.007 C 934.062 926.599 917.246 983.922 919.487 993.382 C 920.36 997.068 925.769 1001.57 928.448 1004.32 L 924.833 1017.85 C 877.364 996.066 838.759 986.243 786.184 987.744 C 786.719 968.578 784.788 934.782 789.536 917.688 C 787.276 913.437 785.132 909.028 782.401 905.058 C 784.467 893.694 789.657 837.654 794.749 832.17 C 796.771 831.452 798.34 830.324 800.413 831.319 C 806.319 834.152 811.723 841.751 816.786 846.097 C 834.733 861.501 860.398 871.11 883.759 864.065 C 901.859 858.607 920.837 844.946 929.69 828.044 C 941.049 806.358 931.05 776.54 924.036 754.764 C 921.656 747.297 919.077 739.895 916.3 732.567 C 925.179 720.217 926.678 704.193 932.763 690.545 C 935.32 684.809 940.78 680.128 942.444 674.083 C 944.742 665.729 945.87 656.057 944.51 647.446 C 942.718 636.1 936.486 626.72 927.152 620.107 C 916.051 612.242 902.639 609.549 889.313 608.648 C 923.164 573.519 946.803 547.706 945.94 495.738 C 945.299 457.152 930.717 416.941 902.642 389.538 C 877.329 364.832 843.009 356.25 808.561 356.874 C 781.384 357.367 759.607 361.298 736.485 376.674 C 724.513 373.001 712.198 370.559 699.73 369.385 C 694.712 368.884 689.418 369.055 684.468 368.223 C 682.193 367.841 681.405 367.598 679.894 365.909 C 684.841 359.066 695.015 353.071 701.583 347.442 C 713.837 336.939 749.614 303.215 747.11 285.955 C 746.585 282.332 744.286 278.606 741.232 276.57 C 730.903 269.685 658.178 281.199 643.854 284.77 C 642.99 284.986 642.13 285.218 641.274 285.467 C 634.861 249.344 625.067 213.964 616.333 178.37 C 609.858 151.985 603.732 121.162 594.964 95.8278 C 593.481 91.5427 590.878 84.1704 587.122 81.3739 C 578.158 74.699 552.744 76.4102 542.013 77.5466 z"/>
<path transform="translate(0,0)" fill="rgb(0,0,0)" d="M 287.194 210.393 C 290.675 199.298 297.234 189.652 304.725 180.873 C 311.737 172.655 319.733 166.13 327.711 158.919 C 339.019 148.698 349.875 138.062 362.28 129.142 C 387.273 111.168 438.059 87.467 468.446 82.3162 C 481.709 80.0679 496.061 78.5551 509.506 78.2119 C 519.993 77.9442 530.683 78.5402 541.123 77.6313 L 542.013 77.5466 C 552.744 76.4102 578.158 74.699 587.122 81.3739 C 590.878 84.1704 593.481 91.5427 594.964 95.8278 C 603.732 121.162 609.858 151.985 616.333 178.37 C 625.067 213.964 634.861 249.344 641.274 285.467 C 642.13 285.218 642.99 284.986 643.854 284.77 C 658.178 281.199 730.903 269.685 741.232 276.57 C 744.286 278.606 746.585 282.332 747.11 285.955 C 749.614 303.215 713.837 336.939 701.583 347.442 C 695.015 353.071 684.841 359.066 679.894 365.909 C 681.405 367.598 682.193 367.841 684.468 368.223 C 689.418 369.055 694.712 368.884 699.73 369.385 C 712.198 370.559 724.513 373.001 736.485 376.674 C 759.607 361.298 781.384 357.367 808.561 356.874 C 843.009 356.25 877.329 364.832 902.642 389.538 C 930.717 416.941 945.299 457.152 945.94 495.738 C 946.803 547.706 923.164 573.519 889.313 608.648 C 902.639 609.549 916.051 612.242 927.152 620.107 C 936.486 626.72 942.718 636.1 944.51 647.446 C 945.87 656.057 944.742 665.729 942.444 674.083 C 940.78 680.128 935.32 684.809 932.763 690.545 C 926.678 704.193 925.179 720.217 916.3 732.567 C 919.077 739.895 921.656 747.297 924.036 754.764 C 931.05 776.54 941.049 806.358 929.69 828.044 C 920.837 844.946 901.859 858.607 883.759 864.065 C 860.398 871.11 834.733 861.501 816.786 846.097 C 811.723 841.751 806.319 834.152 800.413 831.319 C 798.34 830.324 796.771 831.452 794.749 832.17 C 789.657 837.654 784.467 893.694 782.401 905.058 C 785.132 909.028 787.276 913.437 789.536 917.688 C 784.788 934.782 786.719 968.578 786.184 987.744 C 838.759 986.243 877.364 996.066 924.833 1017.85 L 928.448 1004.32 C 925.769 1001.57 920.36 997.068 919.487 993.382 C 917.246 983.922 934.062 926.599 937.021 912.007 C 941.743 888.72 944.737 864.929 948.806 841.503 C 954.83 807.626 962.136 773.99 970.706 740.666 C 973.102 731.621 975.071 719.533 979.751 711.495 C 982.988 705.934 991.608 705.459 997.339 703.924 C 1003.25 690.273 1006.9 661.984 1017.66 652.931 C 1021.53 649.677 1026.37 648.403 1031.36 649.009 C 1037 649.694 1042.97 652.583 1046.34 657.252 C 1056.81 671.774 1045.69 700.78 1042.85 716.901 C 1046.39 720.3 1049.08 723.746 1051.79 727.831 C 1050.11 744.738 1044.99 762.077 1041.43 778.71 C 1031.06 827.134 1018.44 874.879 1007.22 923.071 C 1003.37 939.595 993.386 998.876 987.253 1009 C 984.808 1013.04 979.054 1013.75 974.831 1014.53 C 974.342 1025.77 971.419 1036.88 970.798 1048.19 L 998.935 1079.23 C 1007.64 1037.38 1045.4 993.756 1077.23 966.947 C 1110.97 938.532 1143.39 916.733 1187.04 906.778 C 1194.21 905.141 1203.35 902.259 1210.7 902.89 C 1216.69 906.43 1210.43 911.728 1212.78 916.592 C 1220.97 918.593 1230.07 910.441 1238.24 911.998 C 1241.07 912.539 1241.57 913.631 1242.99 915.882 C 1243.02 919.17 1238.77 923.507 1237.25 926.587 C 1232.23 936.728 1228.2 947.373 1224.16 957.928 C 1227.9 956.179 1231.65 954.373 1235.52 952.952 C 1239.11 951.634 1241.01 951.787 1244.34 953.359 C 1245.29 954.783 1245.99 955.87 1246.05 957.626 C 1246.28 964.449 1235 976.811 1231.29 983.049 C 1217.01 1007.03 1203.87 1032.02 1190.41 1056.49 C 1150.49 1127.86 1114.32 1201.27 1082.05 1276.42 C 1073.46 1296.02 1064.58 1315.62 1056.31 1335.34 C 1051.66 1346.44 1049.59 1364.42 1041.64 1373.42 C 1041.31 1373.8 1040.7 1374.55 1040.26 1374.92 C 1034.69 1379.52 1020.48 1384.12 1013.26 1388.28 C 1000.98 1395.37 920.305 1444.91 913.739 1444.63 C 915.74 1452.96 920.235 1460.49 923.373 1468.43 C 927.333 1478.45 928.563 1491.34 929.545 1502.03 C 932.385 1533 931.715 1564.91 926.351 1595.6 C 924.008 1609.01 919.705 1622.36 915.804 1635.38 C 902.078 1682.05 883.879 1727.29 861.462 1770.46 C 857.972 1777.26 845.21 1805.94 842.434 1809.27 L 844.47 1823.98 C 854.593 1826.9 895.766 1825.98 910.725 1827.53 C 920.923 1828.59 936.759 1835.06 946.501 1832.41 C 955.08 1837.4 966.158 1838.3 975.04 1843.31 C 980.974 1846.66 984.702 1854.33 990.52 1856.78 C 997.068 1859.74 1008.29 1857.57 1015.68 1858.23 C 1039.77 1860.37 1090.27 1865.4 1110.71 1873.86 C 1121.2 1878.2 1131.46 1886.11 1135.69 1897 C 1137.51 1901.69 1137.74 1906.55 1135.58 1911.19 C 1129.27 1924.71 1104.65 1934.48 1090.94 1938.95 C 1056.46 1950.19 1015.4 1957.64 979.328 1960.89 C 965.272 1962.15 951.114 1961.86 937.054 1963.14 C 920.817 1964.63 904.829 1968.29 888.576 1969.55 C 868.875 1971.07 848.996 1970.09 829.304 1971.68 C 813.098 1972.99 797.122 1976.21 780.833 1976.77 C 766.472 1977.26 751.968 1976.25 737.597 1976.06 L 629.784 1974.45 C 612.059 1974.35 594.221 1973.93 576.502 1974.25 C 562.032 1974.51 547.737 1975.52 533.232 1975.18 C 515.52 1974.78 497.974 1972.39 480.284 1971.53 C 468.111 1970.94 455.842 1971.51 443.704 1970.45 C 367.945 1963.06 292.751 1950.73 218.6 1933.53 C 191.145 1926.99 163.743 1922.79 138.345 1909.68 C 127.581 1904.13 121.455 1898.6 117.771 1886.92 C 118.928 1886.13 118.614 1886.49 119.375 1885.46 C 120.137 1884.44 120.89 1883.39 121.634 1882.35 C 125.771 1876.55 131.665 1874.05 137.845 1870.86 C 150.721 1864.2 163.924 1860.34 178.206 1858.12 C 189.011 1856.44 232.405 1856.25 235.703 1854.08 C 229.514 1839.53 227.504 1822.69 224.641 1807.27 C 223.159 1806.52 221.692 1805.68 220.423 1804.6 C 206.924 1793.15 196.843 1775.85 187.448 1761.03 C 150.227 1702.35 130.277 1635.06 123.343 1566.13 C 121.189 1544.71 120.8 1522.38 119.753 1500.83 C 118.86 1482.46 118.048 1437.59 121.909 1420.81 C 123.45 1414.11 126.885 1406.51 131.688 1401.5 C 134.077 1399.01 135.838 1398.02 139.301 1397.96 C 144.541 1399.66 146.906 1403.92 148.759 1408.8 C 151.737 1416.63 152.936 1425.76 154.651 1433.99 C 159.198 1455.8 162.615 1477.83 167.195 1499.59 C 174.026 1532.05 185.4 1563.08 196.59 1594.22 C 199.462 1602.21 204.11 1619.89 210.601 1625.49 C 210.931 1625.77 211.285 1626.03 211.627 1626.3 C 216.707 1598.34 212.775 1568.73 218.03 1540.57 C 232.006 1461.29 250.889 1382.95 274.57 1306 C 278.193 1294.19 280.928 1282.12 284.897 1270.4 C 290.716 1253.23 298.95 1236.99 305.234 1220 C 311.311 1203.57 316.168 1186.68 322.271 1170.22 C 328.524 1153.37 336.307 1136.51 343.819 1120.16 C 351.213 1104.07 360.202 1088.97 368.356 1073.29 C 382.118 1046.84 395.401 1020.73 410.283 994.831 C 414.39 987.686 420.288 979.248 422.445 971.295 C 424.722 962.897 422.08 953.547 427.16 945.815 C 430.98 940.001 438.288 939.165 441.996 934.067 C 443.714 931.705 444.033 929.153 443.63 926.346 C 441.717 924.966 441.604 924.87 439.277 925.218 C 435.762 925.745 431.871 928.267 428.463 929.538 C 421.993 931.952 414.264 932.608 407.374 932.946 C 377.636 934.406 352.716 919.526 331.556 899.893 C 307.865 877.911 298.701 848.435 283.559 821.012 C 263.383 784.473 235.319 755.401 233.78 711.331 C 232.947 687.461 240.323 664.045 249.224 642.131 C 254.065 630.214 260.415 618.898 266.437 607.551 C 281.975 578.273 298.932 550.363 317.113 522.677 C 327.628 506.665 337.847 490.457 349.786 475.442 C 358.299 464.735 368.505 455.131 377.816 445.103 C 363.316 445.21 341.872 448.736 329.157 440.606 C 322.677 436.463 321.891 431.764 320.356 424.744 C 332.623 410.235 357.126 398.606 373.074 387.975 C 357.466 358.507 342.944 328.268 327.937 298.472 C 313.697 270.197 297.197 240.406 287.194 210.393 z M 585.534 266.42 C 511.096 273.017 436.95 298.776 387.777 357.49 C 385.237 360.522 382.987 363.82 380.431 366.82 C 382.187 371.563 383.775 376.501 385.924 381.075 C 393.771 374.641 403.084 370.741 411.512 365.215 C 422.925 358.887 435.08 354.108 446.952 348.732 C 505.579 322.181 565.417 303.115 627.781 287.315 C 625.976 281.297 624.293 275.209 622.038 269.341 C 610.824 265.949 597.186 265.001 585.534 266.42 z M 716.31 290.401 C 610.764 300.879 507.303 336.19 414.012 385.846 C 388.644 399.349 364.538 416.221 339.5 429.568 C 343.977 430.026 348.488 430.392 352.95 430.972 C 369.548 431.155 386.278 428.135 402.829 426.905 C 418.973 425.706 460.049 425.684 474.267 421.064 C 485.478 417.421 499.128 406.423 510.74 400.942 C 568.4 373.724 596.351 366.839 659.653 365.624 C 665.5 357.031 673.946 349.937 681.244 342.573 C 692.613 331.1 719.518 302.548 727.41 289.918 L 716.31 290.401 z M 795.891 369.949 C 729.484 376.225 680.348 434.545 685.431 501.053 C 690.514 567.561 747.943 617.736 814.532 613.847 C 858.682 611.268 898.002 585.059 917.369 545.3 C 936.737 505.541 933.136 458.425 907.951 422.071 C 882.766 385.717 839.92 365.789 795.891 369.949 z M 633.002 379.387 C 618.379 381.029 603.834 382.633 589.465 385.919 C 548.295 395.333 499.851 416.167 468.001 444.361 C 450.742 444.638 433.131 445.478 415.902 444.376 C 456.484 496.533 475.711 641.78 484.47 710.852 C 486.384 725.945 489.383 741.26 490.514 756.402 C 491.181 765.317 490.943 774.311 491.265 783.245 C 492.138 807.411 493.129 824.103 490.038 848.654 C 487.698 867.249 480.921 880.473 473.163 896.98 C 485.013 900.7 497.75 901.793 509.92 904.329 C 535.79 909.866 561.628 915.548 587.433 921.376 C 609.357 926.434 630.411 935.387 652.39 939.638 C 663.157 951.672 669.984 963.957 673.908 979.701 C 690.994 950.345 712.043 934.379 742.232 919.522 C 750.599 915.405 760.686 911.872 768.224 906.425 C 768.571 897.695 768.706 888.91 769.844 880.24 C 771.617 865.136 775.418 850.845 778.13 835.953 C 761.389 841.174 720.505 855.993 704.433 849.772 C 702.582 847.674 702.617 847.75 702.769 844.954 C 704.756 841.865 706.768 841.268 710.278 840.505 C 720.703 838.239 731.248 837.088 741.604 834.385 C 802.609 818.461 865.463 788.23 900.941 734.091 C 907.148 724.621 913.447 714.341 914.172 702.8 L 912.903 701.418 C 906.189 703.266 900.902 709.484 894.345 711.986 C 871.795 720.587 833.422 720.749 812.403 708.93 C 802.224 703.205 792.348 694.334 789.208 682.702 C 786.531 672.782 788.787 661.973 793.957 653.243 C 798.96 644.794 809.138 634.982 818.526 631.625 L 818.477 630.296 C 817.613 629.784 817.03 629.362 815.996 629.296 C 813.728 629.151 810.978 630.18 808.6 630.239 C 802.377 630.395 795.8 629.512 789.593 628.948 C 765.01 626.717 745.11 618.88 725.087 604.352 C 720.226 600.824 714.989 597.27 710.852 592.908 C 696.273 577.537 680.818 544.739 675.459 523.943 C 667.123 490.849 672.14 455.804 689.426 426.378 C 699.527 409.379 710.337 401.36 722.89 387.057 C 700.578 378.283 657.223 377.528 633.002 379.387 z M 865.676 627.403 C 854.471 628.463 836.785 631.611 829.286 640.995 C 827.796 642.86 827.716 643.882 827.959 646.173 C 832.563 651.116 840.609 651.702 846.979 651.931 C 848.904 651.997 850.829 652.041 852.755 652.065 C 863.355 650.564 876.015 646.688 882.954 637.893 C 884.269 636.226 884.903 634.582 885.374 632.538 C 885.001 630.721 885.085 629.949 883.508 628.785 C 879.886 626.114 870.051 626.96 865.676 627.403 z M 1026.4 662.104 C 1018.78 669.23 1011.72 692.104 1011.18 702.704 C 1011.13 703.73 1011.53 704.115 1012 704.994 C 1016.57 706.522 1021.28 707.902 1025.7 709.799 L 1029.45 710.705 C 1034.23 706.615 1037.29 684.991 1037.86 678.209 C 1038.22 674.034 1038.14 667.677 1035.13 664.448 C 1032.81 661.959 1029.58 662.17 1026.4 662.104 z M 1007.93 718.464 C 1003.1 728.838 1001.72 747.705 999.713 759.301 C 996.922 775.25 993.947 791.167 990.788 807.048 C 985.482 833.297 978.936 859.298 973.166 885.451 C 964.85 923.139 957.27 961.313 950.146 999.248 C 953.106 999.641 959.433 1001.28 961.727 999.722 C 964.959 990.384 965.876 980.406 968.213 970.821 C 975.526 940.828 981.951 910.857 988.706 880.739 L 1012.78 771.304 C 1015.91 756.493 1021.13 739.867 1021.97 724.84 C 1018.57 721.564 1012.39 720.03 1007.93 718.464 z M 462.048 909.535 C 461.126 910.561 459.663 911.806 458.974 912.957 C 456.848 916.504 456.923 930.1 457.195 934.393 C 457.374 937.214 457.603 938.721 459.841 940.66 C 465.729 945.759 473.666 949.12 480.609 952.581 C 504.716 964.597 528.005 974.163 554.395 980.14 C 555.247 975.733 555.639 969.118 559.815 966.517 C 571.564 959.198 609.661 968.149 622.807 972.107 C 630.36 974.381 637.868 977.135 645.218 980 C 649.516 981.811 653.723 983.613 657.798 985.892 C 658.608 985.412 659.496 985.161 659.889 984.286 L 658.533 983.687 L 660.049 983.292 C 659.05 975.362 649.206 960.097 643.886 953.861 C 628.852 949.001 613.423 946.031 598.122 942.189 C 574.517 936.263 551.122 929.957 527.309 924.859 C 505.736 920.241 482.878 916.674 462.048 909.535 z M 1192.13 918.248 C 1176.38 921.742 1161.2 926.642 1146.69 933.784 C 1103.58 955.015 1055.04 997.847 1029.25 1038.28 C 1022.17 1049.37 1011.34 1070.48 1010.33 1083.67 L 1011.43 1084.76 C 1013.04 1083.35 1014.09 1082.08 1015.24 1080.27 C 1047.8 1035.7 1083.8 995.236 1128.54 962.47 C 1143.49 951.518 1160.6 941.118 1177.41 933.316 C 1183.61 930.437 1190.58 928.755 1196.6 925.585 C 1198.96 924.343 1199.42 923.768 1200.5 921.361 C 1199.3 919.544 1198.3 918.456 1196 918.061 C 1194.8 917.854 1193.34 918.098 1192.13 918.248 z M 771.105 919.951 C 745.124 931.956 721.738 941.896 702.464 963.989 C 699.38 967.525 695.04 971.723 693.387 976.157 C 693.051 977.059 692.827 977.97 692.628 978.908 C 693.435 980.091 693.993 980.622 695.242 981.325 C 711.601 983.838 740.632 951.415 769.6 953.384 C 770.599 942.69 771.922 931.915 772.417 921.19 L 771.105 919.951 z M 1224.09 928.188 C 1153.2 947.929 1094.41 996.224 1048.15 1052.12 C 1038.77 1063.46 1027.85 1075.61 1020.54 1088.39 C 1019.85 1089.59 1019.5 1090.64 1019.17 1091.97 C 1019.83 1092.99 1020.37 1093.94 1021.21 1094.82 C 1026.64 1086.73 1031.46 1077.81 1037.58 1070.24 C 1078.25 1019.92 1160.02 954.877 1222.54 936.758 C 1223.63 933.943 1225.25 931.513 1224.54 928.534 L 1224.09 928.188 z M 1212.85 948.945 C 1155.89 976.515 1090.22 1021.98 1049.83 1071.12 C 1050.6 1071.68 1050.26 1071.66 1050.74 1071.64 C 1057.31 1064.85 1065.44 1059.57 1072.91 1053.83 C 1113.52 1022.55 1159.81 989.844 1207.94 971.499 L 1208.24 970.171 C 1209.6 964.291 1215.1 955.091 1214.83 949.63 L 1212.85 948.945 z M 433.908 985.176 C 411.616 1024.01 391.52 1064.07 373.714 1105.16 C 369.679 1114.3 366.399 1123.75 362.396 1132.9 C 356.522 1146.32 349.078 1159.01 343.467 1172.55 C 338.595 1184.31 335.656 1196.69 331.057 1208.55 C 324.952 1224.28 317.602 1239.67 311.826 1255.49 C 308.041 1265.87 305.638 1276.7 301.84 1287.07 C 298.089 1297.32 293.596 1307.34 290.147 1317.69 C 286.262 1329.35 284.053 1341.5 280.372 1353.22 C 276.726 1364.82 271.746 1376.05 268.575 1387.79 C 265.126 1400.56 263.092 1413.9 260.3 1426.84 C 256.426 1444.79 251.997 1462.59 248.238 1480.58 C 241.603 1512.32 234.685 1544.26 231.439 1576.57 C 230.282 1588.08 230.427 1599.72 229.983 1611.28 C 229.484 1624.27 228.109 1637.41 228.215 1650.41 C 228.295 1660.29 229.798 1670.17 230.339 1680.04 C 232.374 1717.14 235.738 1753.16 240.904 1789.93 C 243.88 1811.11 246.186 1831.71 251.814 1852.47 C 254.562 1862.6 264.578 1895.19 270.822 1901.97 C 277.39 1906.07 288.555 1907.03 296.311 1908.59 C 358.05 1921.01 421.076 1926.7 483.86 1930.74 C 491.572 1931.23 501.144 1933.5 508.621 1931.79 C 510.117 1931.45 511.167 1930.72 512.381 1929.82 C 513.345 1927.34 513.48 1926.49 512.522 1923.92 C 510.221 1917.75 496.852 1904.06 498.756 1898.51 C 502.207 1897.81 506.008 1899.33 508.846 1901.29 C 515.715 1906.04 520.159 1915.49 523.108 1923.05 C 523.926 1925.15 524.576 1928.39 525.826 1930.17 C 530.452 1931.35 538.17 1931.79 542.506 1929.72 C 544.057 1927.58 544.582 1926.87 544.091 1924.07 C 542.675 1915.99 532.855 1907.87 535.079 1899.76 L 537.094 1898.67 C 543.961 1902.02 555.942 1924.28 560.352 1922.42 C 563.588 1921.05 566.617 1917.47 567.571 1914.12 C 569.037 1908.97 566.74 1903.6 564.021 1899.28 C 556.109 1886.73 539.885 1874.56 525.087 1871.56 C 510.697 1868.63 479.396 1869.86 464.592 1870.4 C 451.254 1870.89 379.357 1877.95 372.932 1871.49 C 372.686 1869.48 372.302 1868.8 373.636 1867.11 C 377.931 1861.67 388.969 1861.17 395.018 1857.72 C 405.245 1851.89 414.991 1842.78 423.137 1834.33 C 474.081 1780.63 509.009 1713.76 523.983 1641.27 C 526.124 1631.29 528.953 1621.3 530.052 1611.14 C 532.464 1588.84 530.649 1564.83 529.164 1542.49 C 526.873 1508.03 514.182 1475.14 487.672 1452.16 C 470.651 1437.4 450.593 1430.34 427.99 1431.95 C 391.567 1434.56 335.29 1475.06 311.756 1502.66 C 307.444 1507.72 297.593 1522.48 292.932 1525.29 L 292.464 1526.08 C 290.378 1529.55 287.838 1533.53 283.82 1534.81 C 281.228 1533.61 281.183 1533.57 279.982 1530.98 C 279.698 1516.54 299.319 1492.61 308.985 1482.56 C 338.545 1451.84 381.267 1417.24 425.792 1416.49 C 455.431 1415.99 482.71 1425.1 504.18 1446.18 C 521.131 1462.82 535.577 1486.24 541.45 1509.32 C 544.006 1519.36 545.03 1529.96 546.403 1540.23 C 547.564 1548.9 549.318 1557.59 549.341 1566.36 C 549.375 1579.62 548.75 1593.71 547.198 1606.88 C 546.172 1615.6 543.189 1624.96 543.736 1633.68 C 545.255 1657.9 551.552 1685.09 556.042 1709.12 L 571.606 1795.7 C 577.69 1827.87 580.923 1860.64 588.528 1892.57 C 590.724 1901.8 594.327 1919.77 600.857 1926.74 C 611.307 1937.9 636.446 1942.97 651.185 1943.89 C 653.198 1944.02 654.401 1943.69 656.245 1942.89 C 652.832 1934.2 643.692 1917.41 645.351 1908.33 L 646.31 1907.62 C 653.558 1910.43 661.019 1923.28 664.075 1930.04 C 666.009 1934.31 666.22 1938.99 667.905 1943.09 C 672.28 1944.22 683.036 1944.77 686.992 1942.65 C 689.9 1929.01 674.489 1915.03 676.819 1902.28 L 678.282 1901.84 C 687.357 1906.8 695.27 1919.94 698.077 1929.68 C 699.175 1933.49 698.94 1938.75 702.113 1941.1 C 704.641 1940.85 706.142 1939.92 707.83 1938 C 711.803 1933.47 712.77 1927.05 712.096 1921.25 C 708.056 1886.44 667.448 1880.46 659.946 1848.53 C 657.047 1836.19 656.123 1823.12 654.393 1810.56 C 651.636 1790.54 648.166 1770.6 645.939 1750.5 C 644.644 1738.82 644.599 1727.03 643.403 1715.34 C 641.366 1695.44 637.178 1675.8 634.846 1655.96 C 632.791 1638.46 632.484 1620.59 631.105 1603 C 629.638 1584.28 627.099 1565.66 625.673 1546.95 C 624.066 1526.16 622.929 1505.34 622.262 1484.5 C 621.855 1470.7 622.118 1456.77 621.181 1443 C 615.938 1437.34 616.788 1429.12 617.072 1421.77 C 617.842 1401.86 617.777 1381.74 619.02 1361.88 C 622.256 1310.2 630.661 1242.37 643.811 1192.2 C 648.817 1173.1 655.365 1154.43 661.933 1135.83 C 666.449 1123.04 669.974 1107.47 676.522 1095.71 C 681.915 1094.53 687.458 1092.97 692.923 1092.25 C 697.57 1075.27 705.713 1059.38 711.815 1042.9 C 706.318 1039.71 697.908 1032.78 691.322 1034.85 C 684.432 1037.01 681.019 1040.62 673.528 1037.17 C 671.554 1036.26 669.677 1035.03 667.845 1033.86 C 651.127 1044.71 599.816 1084.97 582.513 1081.47 C 578.134 1080.59 573.771 1074.15 571.64 1070.51 C 564.203 1057.77 561.8 1041.98 557.901 1027.92 C 549.588 1027.57 541.264 1025.31 533.137 1023.59 C 506.516 1017.97 486.274 1012.48 461.515 1000.23 C 452.071 995.559 443.96 988.785 433.908 985.176 z M 808.173 998.446 C 800.448 998.718 786.414 997.106 780.331 1002.02 C 779.633 1004.5 779.531 1004.59 780.767 1006.78 C 781.298 1007.72 781.819 1008.13 782.745 1008.65 C 794.868 1010.03 807.153 1009.05 819.249 1010.43 C 828.743 1011.52 838.326 1013.83 847.676 1015.8 C 886.323 1023.94 917.008 1036.06 949.266 1058.81 C 954.888 1062.77 966.343 1067.66 970.463 1072.86 C 971.073 1073.63 971.587 1074.45 972.052 1075.31 C 977.098 1080.57 982.188 1085.78 987.321 1090.95 C 962.136 1045.74 908.984 1019.64 861.042 1006.06 C 845.762 1001.73 823.851 997.213 808.173 998.446 z M 946.081 1010.29 C 945.065 1013.55 940.957 1022.24 942.429 1025.08 C 943.924 1027.96 950.558 1033.78 953.636 1034.64 C 954.34 1034.84 955.145 1034.78 955.863 1034.71 C 956.602 1027.66 958.101 1021.81 960.167 1015.05 C 955.519 1013.44 950.827 1011.56 946.081 1010.29 z M 768.219 1019.44 C 761.851 1019.91 758.391 1020.24 754.012 1025.37 C 751.854 1027.89 749.945 1030.62 747.755 1033.12 C 762.313 1034.54 776.964 1034.7 791.493 1036.18 C 846.73 1041.79 904.351 1053.81 953.561 1080.13 C 958.499 1082.53 963.382 1084.99 968.578 1086.8 C 921.924 1041.75 839.6 1018.95 775.959 1019.81 C 773.263 1019.85 770.813 1020.38 768.219 1019.44 z M 731.639 1043.31 C 727.769 1043.68 724.697 1043.54 722.092 1046.78 C 718.888 1050.78 717.348 1057.4 715.685 1062.23 C 788.33 1056.06 865.763 1069.41 935.755 1088.05 L 950.594 1091.41 C 902.181 1062.18 788.77 1039.57 731.639 1043.31 z M 718.573 1072.44 C 715.544 1072.9 714.125 1072.73 712.297 1075.52 C 709.709 1079.47 708.533 1085.49 707.185 1090.04 C 726.457 1089.19 745.572 1085.98 764.887 1085.38 C 774.927 1085.06 785.052 1085.72 795.095 1085.89 C 844.851 1086.73 891.894 1091.82 940.77 1101.31 C 943.608 1101.93 946.65 1103.02 949.495 1102.13 C 940.149 1096.97 921.845 1094.68 911.085 1092.42 C 847.788 1079.12 783.506 1068.94 718.573 1072.44 z M 994.372 1103.6 C 988.947 1104.05 982.007 1103.86 978.074 1108.28 C 976.064 1110.54 975.342 1113.69 975.756 1116.64 C 976.191 1119.75 977.877 1123.13 980.392 1125.07 C 982.911 1127.02 990.005 1126.31 993.356 1126.36 C 997.95 1126.3 1004.35 1127.48 1007.95 1124.16 C 1011.79 1120.63 1012.62 1110.78 1014.03 1105.82 C 1007.02 1103.87 1001.7 1102.31 994.372 1103.6 z M 964.18 1134.34 C 957.21 1150.66 952.263 1167 946.214 1183.58 C 929.981 1228.08 914.697 1272.65 901.055 1318.02 C 890.816 1352.08 881.626 1387.12 868.95 1420.33 C 870.394 1422.36 872.149 1425.23 874.818 1425.76 C 875.723 1425.94 875.721 1425.88 876.504 1425.78 C 883.372 1421.25 939.353 1236.41 947.634 1211.01 C 951.901 1197.63 956.383 1184.32 961.08 1171.08 C 964.291 1162 968.46 1152.45 970.364 1143 C 970.679 1141.44 970.762 1139.89 970.662 1138.3 C 968.951 1135.95 966.807 1135.35 964.18 1134.34 z M 670.855 1232.41 C 670.198 1235.49 669.25 1238.25 670.377 1241.31 L 671.505 1242.14 C 671.712 1239.01 671.817 1236 671.655 1232.86 L 670.855 1232.41 z M 852.068 1429.99 C 851.89 1430.1 851.714 1430.21 851.535 1430.31 C 849.037 1431.77 845.049 1432.07 843.237 1434.07 C 843.813 1449.96 843.903 1465.87 843.506 1481.77 C 843.102 1493.74 841.85 1505.69 841.652 1517.66 L 839.644 1707.2 C 839.561 1723.86 836.727 1766.92 839.482 1780.15 C 845.606 1774.96 856.851 1745.86 859.623 1737.33 C 873.096 1719.18 906.006 1618.78 910.046 1594.25 C 915.189 1563.02 916.986 1528.36 912.395 1496.96 C 911.239 1489.06 909.818 1480.68 906.972 1473.21 C 904.395 1466.44 900.862 1459.98 898.833 1453.02 C 896.471 1455.47 893.318 1457.67 889.761 1457.72 C 878.323 1457.88 868.575 1437.82 859.298 1432.25 C 857.241 1431.02 854.763 1430.75 852.486 1430.15 C 852.341 1430.12 852.207 1430.04 852.068 1429.99 z M 771.336 1431.16 C 771.152 1431.26 770.971 1431.37 770.782 1431.46 C 761.096 1436.26 720.203 1433.06 714.674 1440.03 C 711.402 1456.52 716.638 1479.7 717.823 1496.8 C 721.874 1557.03 727.106 1617.18 733.514 1677.2 C 735.18 1693.06 737.768 1708.81 739.417 1724.65 C 743.157 1760.53 745.194 1796.35 750.545 1832.13 C 753.723 1853.37 763.622 1915.95 773.528 1930.75 C 776.732 1935.53 783.655 1937.54 789.081 1938.31 C 793.383 1938.92 798.294 1939.69 802.398 1937.94 C 798.091 1928.16 792.968 1918.23 792.075 1907.38 L 793.127 1905.5 C 795.552 1905.22 797.396 1906.25 799.291 1907.73 C 808.507 1914.9 812.219 1937.55 820.293 1939.99 C 822.686 1939.52 824.517 1939.21 826.5 1937.74 C 830.608 1939.31 836.602 1939.83 840.819 1938.28 C 841.625 1937.98 842.221 1937.53 842.899 1937.02 C 841.18 1931.98 839.476 1926.83 837.324 1921.96 C 835.022 1916.74 826.609 1905.33 826.863 1900.15 C 828.941 1899.21 829.341 1899.52 831.525 1900.28 C 840.294 1903.34 845.306 1910.45 848.919 1918.53 C 850.922 1923 851.917 1929.23 854.476 1933.17 C 858.08 1933.87 862.851 1932.46 865.819 1930.3 C 868.08 1928.66 869.3 1926.22 869.664 1923.49 C 871.627 1908.73 847.308 1884.2 840.104 1870.79 C 832.018 1855.74 829.576 1825.09 828.051 1807.48 C 825.422 1777.13 825.935 1746.33 825.938 1715.89 C 825.94 1695.24 824.623 1674.48 824.985 1653.88 C 825.311 1635.38 826.823 1616.88 827.611 1598.39 C 828.778 1571.04 829.336 1543.5 829.764 1516.12 C 830.204 1487.93 834.22 1459.63 831.076 1431.42 C 824.054 1433.38 777.267 1434.25 771.336 1431.16 z M 695.95 1440.03 C 690.374 1443.88 643.191 1448.83 636.09 1447.57 C 635.263 1447.43 634.604 1447.08 633.868 1446.7 C 633.982 1485.36 637.704 1524.41 641.17 1562.9 C 644.082 1595.23 646.077 1627.7 649.506 1659.98 C 650.997 1674.01 653.399 1687.96 654.963 1702 C 658.017 1729.42 661.498 1756.62 665.152 1783.97 C 668.826 1811.46 671.236 1842.43 682.021 1868.2 C 682.366 1868.35 682.713 1868.5 683.056 1868.66 C 691.075 1872.35 698.26 1882.17 706.166 1884.32 C 709.107 1888.64 712.882 1893.76 717.696 1895.99 C 721.315 1898.61 742.751 1903.49 747.323 1903.15 C 748.064 1903.09 748.858 1902.86 749.567 1902.64 C 744.161 1872.27 738.908 1841.72 735.16 1811.09 C 731.564 1781.71 729.396 1752.24 726.284 1722.82 L 709.263 1559.35 C 706.518 1530.6 705.462 1501.73 702.063 1473.04 C 701.496 1468.25 701.364 1442.87 698.737 1441.03 C 698.033 1440.54 696.781 1440.28 695.95 1440.03 z M 534.299 1665.71 C 532.529 1674.36 530.976 1683.27 528.177 1691.65 C 512.016 1740.09 465.85 1826.95 423.127 1855.29 C 421.136 1856.61 419.652 1857.38 417.236 1857.69 C 419.25 1858.72 421.357 1859.7 423.639 1859.92 C 430.499 1860.59 487.173 1859 491.072 1857.82 C 491.891 1857.57 491.85 1857.57 492.493 1857.24 C 499.206 1861.3 513.062 1859.15 521.116 1860.12 C 527.639 1860.9 534.347 1862.73 540.417 1865.23 C 555.001 1871.24 570.131 1890.37 574.388 1891.86 C 571.281 1883.49 569.897 1873.73 568.307 1864.92 C 564.27 1842.55 561.859 1820.1 558.27 1797.73 C 554.968 1777.15 550.38 1756.74 546.916 1736.16 L 538.113 1684.32 C 537.304 1679.42 537.153 1674.3 536.195 1669.46 C 535.889 1667.92 535.509 1666.75 534.299 1665.71 z M 847.532 1837.23 C 844.861 1860.7 854.95 1870.78 867.479 1888.66 C 870.305 1892.69 872.585 1898.9 875.95 1902.25 C 876.116 1902.42 876.35 1902.5 876.55 1902.62 C 883.385 1905.01 926.544 1905.56 933.218 1902.3 C 933.89 1901.97 933.912 1901.94 934.47 1901.59 C 932.433 1893.54 927.759 1878.74 931.039 1870.95 L 932.646 1869.94 C 936.61 1871.15 939.044 1875.56 940.894 1879.04 C 943.757 1884.42 945.963 1890.43 946.57 1896.53 C 946.757 1898.41 946.431 1900.84 946.818 1902.61 C 952.228 1903.85 958.373 1904.7 963.405 1901.64 C 963.68 1901.48 963.945 1901.3 964.215 1901.12 C 963.548 1893.99 962.828 1887.14 961.056 1880.18 L 960.801 1879.67 C 958.852 1875.72 957.251 1871.58 955.566 1867.51 C 956.576 1865.12 956.495 1865.25 958.87 1864.2 C 962.243 1864.23 964.623 1864.74 967.048 1867.25 C 974.221 1874.67 974.22 1895.45 980.322 1898.74 C 982.516 1898.19 982.849 1898.12 984.069 1896.19 C 986.118 1892.95 986.772 1888.25 985.824 1884.58 C 982.617 1871.7 974.377 1860.64 962.95 1853.89 C 939.748 1840.37 899.175 1839.71 872.664 1838.61 C 865.151 1838.3 854.659 1839.17 847.532 1837.23 z M 234.822 1864.26 C 234.664 1864.36 234.51 1864.47 234.348 1864.57 C 227.707 1868.48 205.01 1866.5 196.074 1867.28 C 180.992 1868.59 139.355 1876.52 133.295 1891.47 C 135.23 1896.52 141.185 1898.81 145.879 1900.89 C 174.839 1913.75 205.301 1917.97 235.898 1924.74 C 290.096 1936.73 345.802 1946.63 401.068 1952.1 C 426.075 1954.57 450.959 1955.41 476.005 1956.9 C 493.05 1957.92 509.945 1960.22 527.041 1960.74 C 551.712 1961.5 576.381 1959.61 601.075 1959.94 C 664.436 1960.79 730.213 1963.54 793.379 1960.8 C 815.024 1959.86 836.63 1956.89 858.172 1954.71 C 869.411 1953.57 880.755 1953.79 892.002 1952.78 C 906.441 1951.48 920.792 1949.14 935.229 1947.74 C 985.255 1942.88 1038.39 1942.03 1085.82 1923.46 C 1091.35 1921.29 1118.75 1909.23 1120.47 1905.08 C 1120.93 1903.99 1121.12 1903.13 1121.28 1901.97 C 1120.97 1898.16 1118.46 1895.28 1115.64 1892.84 C 1099.55 1878.97 1038.47 1874.63 1016.59 1871.85 C 1010.54 1871.08 1001.31 1871.25 995.92 1868.52 C 997.483 1879.26 1001.28 1894.44 993.951 1903.96 C 987.559 1912.25 970.536 1915.15 960.839 1915.89 C 948.605 1916.83 890.129 1919.69 882.748 1915.78 C 882.389 1923.23 883.23 1933.13 877.146 1938.51 C 861.479 1952.34 817.522 1954.67 797.393 1952.66 C 786.151 1951.54 771.601 1948.39 764.053 1939.14 C 758.689 1932.57 755.11 1923.08 752.966 1914.96 C 745.081 1917.19 730.713 1912.42 723.343 1908.55 C 722.887 1908.32 722.298 1907.91 721.891 1907.65 C 725.03 1919.34 728.651 1930.04 722.003 1941.25 C 717.983 1948.02 710.926 1951.67 703.471 1953.45 C 673.047 1960.72 625.375 1958.73 598.303 1941.94 C 589.209 1936.31 583.717 1927.29 579.408 1917.74 C 575.25 1927.64 568.992 1933.38 559.015 1937.4 C 549.87 1941.09 539.604 1942.97 529.792 1943.61 C 499.835 1945.57 468.319 1942.2 438.474 1939.64 C 400.464 1936.38 359.285 1933.3 321.79 1926.53 C 309.799 1924.36 297.843 1921.16 285.995 1918.31 C 278.23 1916.44 269.71 1914.96 262.346 1911.84 C 254.707 1908.61 252.135 1900.26 249.374 1893.09 C 246.344 1885.22 242.262 1867.61 234.822 1864.26 z"/>
<path transform="translate(0,0)" fill="rgb(255,255,255)" d="M 380.431 366.82 C 382.987 363.82 385.237 360.522 387.777 357.49 C 436.95 298.776 511.096 273.017 585.534 266.42 C 597.186 265.001 610.824 265.949 622.038 269.341 C 624.293 275.209 625.976 281.297 627.781 287.315 C 565.417 303.115 505.579 322.181 446.952 348.732 C 435.08 354.108 422.925 358.887 411.512 365.215 C 403.084 370.741 393.771 374.641 385.924 381.075 C 383.775 376.501 382.187 371.563 380.431 366.82 z"/>
<path transform="translate(0,0)" fill="rgb(255,255,255)" d="M 339.5 429.568 C 364.538 416.221 388.644 399.349 414.012 385.846 C 507.303 336.19 610.764 300.879 716.31 290.401 L 727.41 289.918 C 719.518 302.548 692.613 331.1 681.244 342.573 C 673.946 349.937 665.5 357.031 659.653 365.624 C 596.351 366.839 568.4 373.724 510.74 400.942 C 499.128 406.423 485.478 417.421 474.267 421.064 C 460.049 425.684 418.973 425.706 402.829 426.905 C 386.278 428.135 369.548 431.155 352.95 430.972 C 348.488 430.392 343.977 430.026 339.5 429.568 z"/>
<path transform="translate(0,0)" fill="rgb(255,255,255)" d="M 814.532 613.847 C 747.943 617.736 690.514 567.561 685.431 501.053 C 680.348 434.545 729.484 376.225 795.891 369.949 C 839.92 365.789 882.766 385.717 907.951 422.071 C 933.136 458.425 936.737 505.541 917.369 545.3 C 898.002 585.059 858.682 611.268 814.532 613.847 z M 803.905 379.108 C 742.1 381.143 693.585 432.786 695.41 494.598 C 697.235 556.409 748.713 605.1 810.53 603.485 C 872.646 601.862 921.622 550.082 919.788 487.972 C 917.954 425.863 866.008 377.062 803.905 379.108 z"/>
<path transform="translate(0,0)" fill="rgb(255,255,255)" d="M 468.001 444.361 C 499.851 416.167 548.295 395.333 589.465 385.919 C 603.834 382.633 618.379 381.029 633.002 379.387 C 657.223 377.528 700.578 378.283 722.89 387.057 C 710.337 401.36 699.527 409.379 689.426 426.378 C 672.14 455.804 667.123 490.849 675.459 523.943 C 680.818 544.739 696.273 577.537 710.852 592.908 C 714.989 597.27 720.226 600.824 725.087 604.352 C 745.11 618.88 765.01 626.717 789.593 628.948 C 795.8 629.512 802.377 630.395 808.6 630.239 C 810.978 630.18 813.728 629.151 815.996 629.296 C 817.03 629.362 817.613 629.784 818.477 630.296 L 818.526 631.625 C 809.138 634.982 798.96 644.794 793.957 653.243 C 788.787 661.973 786.531 672.782 789.208 682.702 C 792.348 694.334 802.224 703.205 812.403 708.93 C 833.422 720.749 871.795 720.587 894.345 711.986 C 900.902 709.484 906.189 703.266 912.903 701.418 L 914.172 702.8 C 913.447 714.341 907.148 724.621 900.941 734.091 C 865.463 788.23 802.609 818.461 741.604 834.385 C 731.248 837.088 720.703 838.239 710.278 840.505 C 706.768 841.268 704.756 841.865 702.769 844.954 C 702.617 847.75 702.582 847.674 704.433 849.772 C 720.505 855.993 761.389 841.174 778.13 835.953 C 775.418 850.845 771.617 865.136 769.844 880.24 C 768.706 888.91 768.571 897.695 768.224 906.425 C 760.686 911.872 750.599 915.405 742.232 919.522 C 712.043 934.379 690.994 950.345 673.908 979.701 C 669.984 963.957 663.157 951.672 652.39 939.638 C 630.411 935.387 609.357 926.434 587.433 921.376 C 561.628 915.548 535.79 909.866 509.92 904.329 C 497.75 901.793 485.013 900.7 473.163 896.98 C 480.921 880.473 487.698 867.249 490.038 848.654 C 493.129 824.103 492.138 807.411 491.265 783.245 C 490.943 774.311 491.181 765.317 490.514 756.402 C 489.383 741.26 486.384 725.945 484.47 710.852 C 475.711 641.78 456.484 496.533 415.902 444.376 C 433.131 445.478 450.742 444.638 468.001 444.361 z M 575.136 495.745 C 567.382 502.65 551.344 518.715 550.955 529.271 C 550.862 531.813 551.367 532.777 552.975 534.626 C 554.748 534.933 556.518 535.286 558.311 535.446 C 563.682 527.789 580.345 508.945 581.253 500.433 C 580.5 498.214 580.578 497.733 578.436 496.595 C 577.336 496.01 576.354 495.904 575.136 495.745 z M 601.066 541.709 C 594.032 548.673 593.262 558.073 593.252 567.604 C 593.243 576.874 594.423 587.607 601.324 594.51 C 603.647 596.834 605.893 597.003 608.989 597.344 C 615.779 591.015 616.962 583.705 617.203 574.717 C 617.461 565.133 616.225 552.249 609.073 545.034 C 606.742 542.682 604.308 541.893 601.066 541.709 z M 848.828 723.3 C 848.705 723.478 848.575 723.65 848.46 723.832 C 845.036 729.243 845.656 738.242 843.5 744.609 C 836.813 764.357 804.141 777.467 785.096 782.346 C 737.246 794.605 682.432 787.604 638.723 764.988 C 633.827 762.455 630.617 760.901 626.16 764.914 C 625.256 767.69 625.538 769.541 626.148 772.359 L 628.8 775.759 C 667.921 801.635 729.314 808.718 774.639 799.468 C 800.492 794.192 833.909 780.636 848.741 757.807 C 853.272 750.833 858.442 736.939 856.458 728.506 C 856.033 726.7 855.155 725.694 853.899 724.386 C 852.192 723.871 850.627 723.366 848.828 723.3 z"/>
<path transform="translate(0,0)" fill="rgb(0,0,0)" d="M 810.53 603.485 C 748.713 605.1 697.235 556.409 695.41 494.598 C 693.585 432.786 742.1 381.143 803.905 379.108 C 866.008 377.062 917.954 425.863 919.788 487.972 C 921.622 550.082 872.646 601.862 810.53 603.485 z M 800.056 392.493 L 797.659 394.384 C 797.509 396.787 798.125 397.327 799.781 399.12 C 804.526 404.254 810.683 408.152 815.376 413.281 C 838.752 438.828 851.425 472.178 863.47 503.99 C 865.845 510.262 879.024 554.342 881.545 556.362 C 884.969 553.522 887.662 548.493 889.874 544.662 C 904.099 522.631 910.948 498.501 905.285 472.303 C 899.78 446.835 882.786 418.185 860.57 404.295 C 840.887 391.988 822.617 390.344 800.056 392.493 z M 773.771 399.998 C 749.987 407.888 729.554 426.093 718.43 448.389 C 707.347 470.604 704.524 500.581 712.489 524.03 C 720.367 547.221 735.523 568.618 758.073 579.392 C 770.944 585.541 784.436 588.243 798.453 590.001 C 821.13 591.081 845.21 587.227 863.757 573.162 C 850.58 518.492 836.755 455.729 795.01 414.997 C 789.973 410.082 784.46 404.603 778.372 401.023 C 776.832 400.117 775.533 399.991 773.771 399.998 z"/>
<path transform="translate(0,0)" fill="rgb(255,255,255)" d="M 889.874 544.662 C 887.662 548.493 884.969 553.522 881.545 556.362 C 879.024 554.342 865.845 510.262 863.47 503.99 C 851.425 472.178 838.752 438.828 815.376 413.281 C 810.683 408.152 804.526 404.254 799.781 399.12 C 798.125 397.327 797.509 396.787 797.659 394.384 L 800.056 392.493 C 822.617 390.344 840.887 391.988 860.57 404.295 C 882.786 418.185 899.78 446.835 905.285 472.303 C 910.948 498.501 904.099 522.631 889.874 544.662 z"/>
<path transform="translate(0,0)" fill="rgb(255,255,255)" d="M 798.453 590.001 C 784.436 588.243 770.944 585.541 758.073 579.392 C 735.523 568.618 720.367 547.221 712.489 524.03 C 704.524 500.581 707.347 470.604 718.43 448.389 C 729.554 426.093 749.987 407.888 773.771 399.998 C 775.533 399.991 776.832 400.117 778.372 401.023 C 784.46 404.603 789.973 410.082 795.01 414.997 C 836.755 455.729 850.58 518.492 863.757 573.162 C 845.21 587.227 821.13 591.081 798.453 590.001 z M 778.243 458.657 C 777.413 460.23 776.22 461.459 776.747 463.236 C 778.195 468.125 784.964 471.603 789.247 473.594 C 792.989 475.334 796.39 476.662 800.456 477.365 C 800.84 477.431 801.223 477.508 801.608 477.572 C 801.839 477.61 802.072 477.637 802.304 477.669 C 803.637 474.785 804.063 474.219 803.602 471.13 C 798.496 463.465 786.707 460.7 778.243 458.657 z M 784.138 511.551 C 777.726 518.673 777.344 527.711 777.846 536.936 C 778.175 543.003 779.485 551.6 784.364 555.851 C 786.279 557.519 788.198 557.162 790.604 557.301 C 796.209 551.833 796.939 546.25 797 538.654 C 797.059 531.318 796.097 519.784 790.55 514.339 C 788.381 512.209 787.042 512.169 784.138 511.551 z"/>
<path transform="translate(0,0)" fill="rgb(0,0,0)" d="M 802.304 477.669 C 802.072 477.637 801.839 477.61 801.608 477.572 C 801.223 477.508 800.84 477.431 800.456 477.365 C 796.39 476.662 792.989 475.334 789.247 473.594 C 784.964 471.603 778.195 468.125 776.747 463.236 C 776.22 461.459 777.413 460.23 778.243 458.657 C 786.707 460.7 798.496 463.465 803.602 471.13 C 804.063 474.219 803.637 474.785 802.304 477.669 z"/>
<path transform="translate(0,0)" fill="rgb(0,0,0)" d="M 558.311 535.446 C 556.518 535.286 554.748 534.933 552.975 534.626 C 551.367 532.777 550.862 531.813 550.955 529.271 C 551.344 518.715 567.382 502.65 575.136 495.745 C 576.354 495.904 577.336 496.01 578.436 496.595 C 580.578 497.733 580.5 498.214 581.253 500.433 C 580.345 508.945 563.682 527.789 558.311 535.446 z"/>
<path transform="translate(0,0)" fill="rgb(0,0,0)" d="M 790.604 557.301 C 788.198 557.162 786.279 557.519 784.364 555.851 C 779.485 551.6 778.175 543.003 777.846 536.936 C 777.344 527.711 777.726 518.673 784.138 511.551 C 787.042 512.169 788.381 512.209 790.55 514.339 C 796.097 519.784 797.059 531.318 797 538.654 C 796.939 546.25 796.209 551.833 790.604 557.301 z"/>
<path transform="translate(0,0)" fill="rgb(0,0,0)" d="M 608.989 597.344 C 605.893 597.003 603.647 596.834 601.324 594.51 C 594.423 587.607 593.243 576.874 593.252 567.604 C 593.262 558.073 594.032 548.673 601.066 541.709 C 604.308 541.893 606.742 542.682 609.073 545.034 C 616.225 552.249 617.461 565.133 617.203 574.717 C 616.962 583.705 615.779 591.015 608.989 597.344 z"/>
<path transform="translate(0,0)" fill="rgb(255,255,255)" d="M 852.755 652.065 C 850.829 652.041 848.904 651.997 846.979 651.931 C 840.609 651.702 832.563 651.116 827.959 646.173 C 827.716 643.882 827.796 642.86 829.286 640.995 C 836.785 631.611 854.471 628.463 865.676 627.403 C 870.051 626.96 879.886 626.114 883.508 628.785 C 885.085 629.949 885.001 630.721 885.374 632.538 C 884.903 634.582 884.269 636.226 882.954 637.893 C 876.015 646.688 863.355 650.564 852.755 652.065 z"/>
<path transform="translate(0,0)" fill="rgb(255,255,255)" d="M 1025.7 709.799 C 1021.28 707.902 1016.57 706.522 1012 704.994 C 1011.53 704.115 1011.13 703.73 1011.18 702.704 C 1011.72 692.104 1018.78 669.23 1026.4 662.104 C 1029.58 662.17 1032.81 661.959 1035.13 664.448 C 1038.14 667.677 1038.22 674.034 1037.86 678.209 C 1037.29 684.991 1034.23 706.615 1029.45 710.705 L 1025.7 709.799 z"/>
<path transform="translate(0,0)" fill="rgb(255,255,255)" d="M 950.146 999.248 C 957.27 961.313 964.85 923.139 973.166 885.451 C 978.936 859.298 985.482 833.297 990.788 807.048 C 993.947 791.167 996.922 775.25 999.713 759.301 C 1001.72 747.705 1003.1 728.838 1007.93 718.464 C 1012.39 720.03 1018.57 721.564 1021.97 724.84 C 1021.13 739.867 1015.91 756.493 1012.78 771.304 L 988.706 880.739 C 981.951 910.857 975.526 940.828 968.213 970.821 C 965.876 980.406 964.959 990.384 961.727 999.722 C 959.433 1001.28 953.106 999.641 950.146 999.248 z"/>
<path transform="translate(0,0)" fill="rgb(0,0,0)" d="M 628.8 775.759 L 626.148 772.359 C 625.538 769.541 625.256 767.69 626.16 764.914 C 630.617 760.901 633.827 762.455 638.723 764.988 C 682.432 787.604 737.246 794.605 785.096 782.346 C 804.141 777.467 836.813 764.357 843.5 744.609 C 845.656 738.242 845.036 729.243 848.46 723.832 C 848.575 723.65 848.705 723.478 848.828 723.3 C 850.627 723.366 852.192 723.871 853.899 724.386 C 855.155 725.694 856.033 726.7 856.458 728.506 C 858.442 736.939 853.272 750.833 848.741 757.807 C 833.909 780.636 800.492 794.192 774.639 799.468 C 729.314 808.718 667.921 801.635 628.8 775.759 z"/>
<path transform="translate(0,0)" fill="rgb(255,255,255)" d="M 554.395 980.14 C 528.005 974.163 504.716 964.597 480.609 952.581 C 473.666 949.12 465.729 945.759 459.841 940.66 C 457.603 938.721 457.374 937.214 457.195 934.393 C 456.923 930.1 456.848 916.504 458.974 912.957 C 459.663 911.806 461.126 910.561 462.048 909.535 C 482.878 916.674 505.736 920.241 527.309 924.859 C 551.122 929.957 574.517 936.263 598.122 942.189 C 613.423 946.031 628.852 949.001 643.886 953.861 C 649.206 960.097 659.05 975.362 660.049 983.292 L 658.533 983.687 L 659.889 984.286 C 659.496 985.161 658.608 985.412 657.798 985.892 C 653.723 983.613 649.516 981.811 645.218 980 C 637.868 977.135 630.36 974.381 622.807 972.107 C 609.661 968.149 571.564 959.198 559.815 966.517 C 555.639 969.118 555.247 975.733 554.395 980.14 z"/>
<path transform="translate(0,0)" fill="rgb(255,255,255)" d="M 1015.24 1080.27 C 1014.09 1082.08 1013.04 1083.35 1011.43 1084.76 L 1010.33 1083.67 C 1011.34 1070.48 1022.17 1049.37 1029.25 1038.28 C 1055.04 997.847 1103.58 955.015 1146.69 933.784 C 1161.2 926.642 1176.38 921.742 1192.13 918.248 C 1193.34 918.098 1194.8 917.854 1196 918.061 C 1198.3 918.456 1199.3 919.544 1200.5 921.361 C 1199.42 923.768 1198.96 924.343 1196.6 925.585 C 1190.58 928.755 1183.61 930.437 1177.41 933.316 C 1160.6 941.118 1143.49 951.518 1128.54 962.47 C 1083.8 995.236 1047.8 1035.7 1015.24 1080.27 z"/>
<path transform="translate(0,0)" fill="rgb(255,255,255)" d="M 695.242 981.325 C 693.993 980.622 693.435 980.091 692.628 978.908 C 692.827 977.97 693.051 977.059 693.387 976.157 C 695.04 971.723 699.38 967.525 702.464 963.989 C 721.738 941.896 745.124 931.956 771.105 919.951 L 772.417 921.19 C 771.922 931.915 770.599 942.69 769.6 953.384 C 740.632 951.415 711.601 983.838 695.242 981.325 z"/>
<path transform="translate(0,0)" fill="rgb(255,255,255)" d="M 1021.21 1094.82 C 1020.37 1093.94 1019.83 1092.99 1019.17 1091.97 C 1019.5 1090.64 1019.85 1089.59 1020.54 1088.39 C 1027.85 1075.61 1038.77 1063.46 1048.15 1052.12 C 1094.41 996.224 1153.2 947.929 1224.09 928.188 L 1224.54 928.534 C 1225.25 931.513 1223.63 933.943 1222.54 936.758 C 1160.02 954.877 1078.25 1019.92 1037.58 1070.24 C 1031.46 1077.81 1026.64 1086.73 1021.21 1094.82 z"/>
<path transform="translate(0,0)" fill="rgb(255,255,255)" d="M 1050.74 1071.64 C 1050.26 1071.66 1050.6 1071.68 1049.83 1071.12 C 1090.22 1021.98 1155.89 976.515 1212.85 948.945 L 1214.83 949.63 C 1215.1 955.091 1209.6 964.291 1208.24 970.171 L 1207.94 971.499 C 1159.81 989.844 1113.52 1022.55 1072.91 1053.83 C 1065.44 1059.57 1057.31 1064.85 1050.74 1071.64 z"/>
<path transform="translate(0,0)" fill="rgb(255,255,255)" d="M 270.822 1901.97 C 264.578 1895.19 254.562 1862.6 251.814 1852.47 C 246.186 1831.71 243.88 1811.11 240.904 1789.93 C 235.738 1753.16 232.374 1717.14 230.339 1680.04 C 229.798 1670.17 228.295 1660.29 228.215 1650.41 C 228.109 1637.41 229.484 1624.27 229.983 1611.28 C 230.427 1599.72 230.282 1588.08 231.439 1576.57 C 234.685 1544.26 241.603 1512.32 248.238 1480.58 C 251.997 1462.59 256.426 1444.79 260.3 1426.84 C 263.092 1413.9 265.126 1400.56 268.575 1387.79 C 271.746 1376.05 276.726 1364.82 280.372 1353.22 C 284.053 1341.5 286.262 1329.35 290.147 1317.69 C 293.596 1307.34 298.089 1297.32 301.84 1287.07 C 305.638 1276.7 308.041 1265.87 311.826 1255.49 C 317.602 1239.67 324.952 1224.28 331.057 1208.55 C 335.656 1196.69 338.595 1184.31 343.467 1172.55 C 349.078 1159.01 356.522 1146.32 362.396 1132.9 C 366.399 1123.75 369.679 1114.3 373.714 1105.16 C 391.52 1064.07 411.616 1024.01 433.908 985.176 C 443.96 988.785 452.071 995.559 461.515 1000.23 C 486.274 1012.48 506.516 1017.97 533.137 1023.59 C 541.264 1025.31 549.588 1027.57 557.901 1027.92 C 561.8 1041.98 564.203 1057.77 571.64 1070.51 C 573.771 1074.15 578.134 1080.59 582.513 1081.47 C 599.816 1084.97 651.127 1044.71 667.845 1033.86 C 669.677 1035.03 671.554 1036.26 673.528 1037.17 C 681.019 1040.62 684.432 1037.01 691.322 1034.85 C 697.908 1032.78 706.318 1039.71 711.815 1042.9 C 705.713 1059.38 697.57 1075.27 692.923 1092.25 C 687.458 1092.97 681.915 1094.53 676.522 1095.71 C 669.974 1107.47 666.449 1123.04 661.933 1135.83 C 655.365 1154.43 648.817 1173.1 643.811 1192.2 C 630.661 1242.37 622.256 1310.2 619.02 1361.88 C 617.777 1381.74 617.842 1401.86 617.072 1421.77 C 616.788 1429.12 615.938 1437.34 621.181 1443 C 622.118 1456.77 621.855 1470.7 622.262 1484.5 C 622.929 1505.34 624.066 1526.16 625.673 1546.95 C 627.099 1565.66 629.638 1584.28 631.105 1603 C 632.484 1620.59 632.791 1638.46 634.846 1655.96 C 637.178 1675.8 641.366 1695.44 643.403 1715.34 C 644.599 1727.03 644.644 1738.82 645.939 1750.5 C 648.166 1770.6 651.636 1790.54 654.393 1810.56 C 656.123 1823.12 657.047 1836.19 659.946 1848.53 C 667.448 1880.46 708.056 1886.44 712.096 1921.25 C 712.77 1927.05 711.803 1933.47 707.83 1938 C 706.142 1939.92 704.641 1940.85 702.113 1941.1 C 698.94 1938.75 699.175 1933.49 698.077 1929.68 C 695.27 1919.94 687.357 1906.8 678.282 1901.84 L 676.819 1902.28 C 674.489 1915.03 689.9 1929.01 686.992 1942.65 C 683.036 1944.77 672.28 1944.22 667.905 1943.09 C 666.22 1938.99 666.009 1934.31 664.075 1930.04 C 661.019 1923.28 653.558 1910.43 646.31 1907.62 L 645.351 1908.33 C 643.692 1917.41 652.832 1934.2 656.245 1942.89 C 654.401 1943.69 653.198 1944.02 651.185 1943.89 C 636.446 1942.97 611.307 1937.9 600.857 1926.74 C 594.327 1919.77 590.724 1901.8 588.528 1892.57 C 580.923 1860.64 577.69 1827.87 571.606 1795.7 L 556.042 1709.12 C 551.552 1685.09 545.255 1657.9 543.736 1633.68 C 543.189 1624.96 546.172 1615.6 547.198 1606.88 C 548.75 1593.71 549.375 1579.62 549.341 1566.36 C 549.318 1557.59 547.564 1548.9 546.403 1540.23 C 545.03 1529.96 544.006 1519.36 541.45 1509.32 C 535.577 1486.24 521.131 1462.82 504.18 1446.18 C 482.71 1425.1 455.431 1415.99 425.792 1416.49 C 381.267 1417.24 338.545 1451.84 308.985 1482.56 C 299.319 1492.61 279.698 1516.54 279.982 1530.98 C 281.183 1533.57 281.228 1533.61 283.82 1534.81 C 287.838 1533.53 290.378 1529.55 292.464 1526.08 L 292.932 1525.29 C 297.593 1522.48 307.444 1507.72 311.756 1502.66 C 335.29 1475.06 391.567 1434.56 427.99 1431.95 C 450.593 1430.34 470.651 1437.4 487.672 1452.16 C 514.182 1475.14 526.873 1508.03 529.164 1542.49 C 530.649 1564.83 532.464 1588.84 530.052 1611.14 C 528.953 1621.3 526.124 1631.29 523.983 1641.27 C 509.009 1713.76 474.081 1780.63 423.137 1834.33 C 414.991 1842.78 405.245 1851.89 395.018 1857.72 C 388.969 1861.17 377.931 1861.67 373.636 1867.11 C 372.302 1868.8 372.686 1869.48 372.932 1871.49 C 379.357 1877.95 451.254 1870.89 464.592 1870.4 C 479.396 1869.86 510.697 1868.63 525.087 1871.56 C 539.885 1874.56 556.109 1886.73 564.021 1899.28 C 566.74 1903.6 569.037 1908.97 567.571 1914.12 C 566.617 1917.47 563.588 1921.05 560.352 1922.42 C 555.942 1924.28 543.961 1902.02 537.094 1898.67 L 535.079 1899.76 C 532.855 1907.87 542.675 1915.99 544.091 1924.07 C 544.582 1926.87 544.057 1927.58 542.506 1929.72 C 538.17 1931.79 530.452 1931.35 525.826 1930.17 C 524.576 1928.39 523.926 1925.15 523.108 1923.05 C 520.159 1915.49 515.715 1906.04 508.846 1901.29 C 506.008 1899.33 502.207 1897.81 498.756 1898.51 C 496.852 1904.06 510.221 1917.75 512.522 1923.92 C 513.48 1926.49 513.345 1927.34 512.381 1929.82 C 511.167 1930.72 510.117 1931.45 508.621 1931.79 C 501.144 1933.5 491.572 1931.23 483.86 1930.74 C 421.076 1926.7 358.05 1921.01 296.311 1908.59 C 288.555 1907.03 277.39 1906.07 270.822 1901.97 z M 659.937 1046.91 C 655.025 1049.77 652.198 1052.74 650.864 1058.54 C 650.171 1061.56 650.602 1064.81 652.312 1067.42 C 653.534 1069.29 655.251 1070.5 657.443 1070.94 C 659.145 1071.28 661.076 1071.23 662.81 1071.26 C 667.703 1067.83 671.007 1064.71 672.106 1058.47 C 672.567 1055.86 672.096 1053.17 670.479 1051.02 C 668.36 1048.2 664.81 1047.29 661.46 1047 C 660.953 1046.96 660.445 1046.93 659.937 1046.91 z M 638.095 1112.86 C 633.734 1115.81 630.698 1118.61 629.463 1124.04 C 628.879 1126.61 629.143 1129.32 630.548 1131.59 C 632.291 1134.4 634.809 1135.55 637.975 1136.09 C 639.208 1136.3 640.452 1136.41 641.698 1136.49 C 646.115 1132.63 649.612 1128.53 649.943 1122.33 C 650.084 1119.69 649.309 1117.15 647.468 1115.22 C 645.283 1112.93 642.875 1112.65 639.856 1112.76 C 639.268 1112.78 638.681 1112.81 638.095 1112.86 z"/>
<path transform="translate(0,0)" fill="rgb(255,255,255)" d="M 972.052 1075.31 C 971.587 1074.45 971.073 1073.63 970.463 1072.86 C 966.343 1067.66 954.888 1062.77 949.266 1058.81 C 917.008 1036.06 886.323 1023.94 847.676 1015.8 C 838.326 1013.83 828.743 1011.52 819.249 1010.43 C 807.153 1009.05 794.868 1010.03 782.745 1008.65 C 781.819 1008.13 781.298 1007.72 780.767 1006.78 C 779.531 1004.59 779.633 1004.5 780.331 1002.02 C 786.414 997.106 800.448 998.718 808.173 998.446 C 823.851 997.213 845.762 1001.73 861.042 1006.06 C 908.984 1019.64 962.136 1045.74 987.321 1090.95 C 982.188 1085.78 977.098 1080.57 972.052 1075.31 z"/>
<path transform="translate(0,0)" fill="rgb(255,255,255)" d="M 955.863 1034.71 C 955.145 1034.78 954.34 1034.84 953.636 1034.64 C 950.558 1033.78 943.924 1027.96 942.429 1025.08 C 940.957 1022.24 945.065 1013.55 946.081 1010.29 C 950.827 1011.56 955.519 1013.44 960.167 1015.05 C 958.101 1021.81 956.602 1027.66 955.863 1034.71 z"/>
<path transform="translate(0,0)" fill="rgb(255,255,255)" d="M 747.755 1033.12 C 749.945 1030.62 751.854 1027.89 754.012 1025.37 C 758.391 1020.24 761.851 1019.91 768.219 1019.44 C 770.813 1020.38 773.263 1019.85 775.959 1019.81 C 839.6 1018.95 921.924 1041.75 968.578 1086.8 C 963.382 1084.99 958.499 1082.53 953.561 1080.13 C 904.351 1053.81 846.73 1041.79 791.493 1036.18 C 776.964 1034.7 762.313 1034.54 747.755 1033.12 z"/>
<path transform="translate(0,0)" fill="rgb(255,255,255)" d="M 715.685 1062.23 C 717.348 1057.4 718.888 1050.78 722.092 1046.78 C 724.697 1043.54 727.769 1043.68 731.639 1043.31 C 788.77 1039.57 902.181 1062.18 950.594 1091.41 L 935.755 1088.05 C 865.763 1069.41 788.33 1056.06 715.685 1062.23 z"/>
<path transform="translate(0,0)" fill="rgb(0,0,0)" d="M 662.81 1071.26 C 661.076 1071.23 659.145 1071.28 657.443 1070.94 C 655.251 1070.5 653.534 1069.29 652.312 1067.42 C 650.602 1064.81 650.171 1061.56 650.864 1058.54 C 652.198 1052.74 655.025 1049.77 659.937 1046.91 C 660.445 1046.93 660.953 1046.96 661.46 1047 C 664.81 1047.29 668.36 1048.2 670.479 1051.02 C 672.096 1053.17 672.567 1055.86 672.106 1058.47 C 671.007 1064.71 667.703 1067.83 662.81 1071.26 z"/>
<path transform="translate(0,0)" fill="rgb(255,255,255)" d="M 707.185 1090.04 C 708.533 1085.49 709.709 1079.47 712.297 1075.52 C 714.125 1072.73 715.544 1072.9 718.573 1072.44 C 783.506 1068.94 847.788 1079.12 911.085 1092.42 C 921.845 1094.68 940.149 1096.97 949.495 1102.13 C 946.65 1103.02 943.608 1101.93 940.77 1101.31 C 891.894 1091.82 844.851 1086.73 795.095 1085.89 C 785.052 1085.72 774.927 1085.06 764.887 1085.38 C 745.572 1085.98 726.457 1089.19 707.185 1090.04 z"/>
<path transform="translate(0,0)" fill="rgb(255,255,255)" d="M 993.356 1126.36 C 990.005 1126.31 982.911 1127.02 980.392 1125.07 C 977.877 1123.13 976.191 1119.75 975.756 1116.64 C 975.342 1113.69 976.064 1110.54 978.074 1108.28 C 982.007 1103.86 988.947 1104.05 994.372 1103.6 C 1001.7 1102.31 1007.02 1103.87 1014.03 1105.82 C 1012.62 1110.78 1011.79 1120.63 1007.95 1124.16 C 1004.35 1127.48 997.95 1126.3 993.356 1126.36 z"/>
<path transform="translate(0,0)" fill="rgb(0,0,0)" d="M 641.698 1136.49 C 640.452 1136.41 639.208 1136.3 637.975 1136.09 C 634.809 1135.55 632.291 1134.4 630.548 1131.59 C 629.143 1129.32 628.879 1126.61 629.463 1124.04 C 630.698 1118.61 633.734 1115.81 638.095 1112.86 C 638.681 1112.81 639.268 1112.78 639.856 1112.76 C 642.875 1112.65 645.283 1112.93 647.468 1115.22 C 649.309 1117.15 650.084 1119.69 649.943 1122.33 C 649.612 1128.53 646.115 1132.63 641.698 1136.49 z"/>
<path transform="translate(0,0)" fill="rgb(255,255,255)" d="M 868.95 1420.33 C 881.626 1387.12 890.816 1352.08 901.055 1318.02 C 914.697 1272.65 929.981 1228.08 946.214 1183.58 C 952.263 1167 957.21 1150.66 964.18 1134.34 C 966.807 1135.35 968.951 1135.95 970.662 1138.3 C 970.762 1139.89 970.679 1141.44 970.364 1143 C 968.46 1152.45 964.291 1162 961.08 1171.08 C 956.383 1184.32 951.901 1197.63 947.634 1211.01 C 939.353 1236.41 883.372 1421.25 876.504 1425.78 C 875.721 1425.88 875.723 1425.94 874.818 1425.76 C 872.149 1425.23 870.394 1422.36 868.95 1420.33 z"/>
<path transform="translate(0,0)" fill="rgb(10,10,10)" d="M 671.505 1242.14 L 670.377 1241.31 C 669.25 1238.25 670.198 1235.49 670.855 1232.41 L 671.655 1232.86 C 671.817 1236 671.712 1239.01 671.505 1242.14 z"/>
<path transform="translate(0,0)" fill="rgb(255,255,255)" d="M 839.482 1780.15 C 836.727 1766.92 839.561 1723.86 839.644 1707.2 L 841.652 1517.66 C 841.85 1505.69 843.102 1493.74 843.506 1481.77 C 843.903 1465.87 843.813 1449.96 843.237 1434.07 C 845.049 1432.07 849.037 1431.77 851.535 1430.31 C 851.714 1430.21 851.89 1430.1 852.068 1429.99 C 852.207 1430.04 852.341 1430.12 852.486 1430.15 C 854.763 1430.75 857.241 1431.02 859.298 1432.25 C 868.575 1437.82 878.323 1457.88 889.761 1457.72 C 893.318 1457.67 896.471 1455.47 898.833 1453.02 C 900.862 1459.98 904.395 1466.44 906.972 1473.21 C 909.818 1480.68 911.239 1489.06 912.395 1496.96 C 916.986 1528.36 915.189 1563.02 910.046 1594.25 C 906.006 1618.78 873.096 1719.18 859.623 1737.33 C 856.851 1745.86 845.606 1774.96 839.482 1780.15 z"/>
<path transform="translate(0,0)" fill="rgb(255,255,255)" d="M 802.398 1937.94 C 798.294 1939.69 793.383 1938.92 789.081 1938.31 C 783.655 1937.54 776.732 1935.53 773.528 1930.75 C 763.622 1915.95 753.723 1853.37 750.545 1832.13 C 745.194 1796.35 743.157 1760.53 739.417 1724.65 C 737.768 1708.81 735.18 1693.06 733.514 1677.2 C 727.106 1617.18 721.874 1557.03 717.823 1496.8 C 716.638 1479.7 711.402 1456.52 714.674 1440.03 C 720.203 1433.06 761.096 1436.26 770.782 1431.46 C 770.971 1431.37 771.152 1431.26 771.336 1431.16 C 777.267 1434.25 824.054 1433.38 831.076 1431.42 C 834.22 1459.63 830.204 1487.93 829.764 1516.12 C 829.336 1543.5 828.778 1571.04 827.611 1598.39 C 826.823 1616.88 825.311 1635.38 824.985 1653.88 C 824.623 1674.48 825.94 1695.24 825.938 1715.89 C 825.935 1746.33 825.422 1777.13 828.051 1807.48 C 829.576 1825.09 832.018 1855.74 840.104 1870.79 C 847.308 1884.2 871.627 1908.73 869.664 1923.49 C 869.3 1926.22 868.08 1928.66 865.819 1930.3 C 862.851 1932.46 858.08 1933.87 854.476 1933.17 C 851.917 1929.23 850.922 1923 848.919 1918.53 C 845.306 1910.45 840.294 1903.34 831.525 1900.28 C 829.341 1899.52 828.941 1899.21 826.863 1900.15 C 826.609 1905.33 835.022 1916.74 837.324 1921.96 C 839.476 1926.83 841.18 1931.98 842.899 1937.02 C 842.221 1937.53 841.625 1937.98 840.819 1938.28 C 836.602 1939.83 830.608 1939.31 826.5 1937.74 C 824.517 1939.21 822.686 1939.52 820.293 1939.99 C 812.219 1937.55 808.507 1914.9 799.291 1907.73 C 797.396 1906.25 795.552 1905.22 793.127 1905.5 L 792.075 1907.38 C 792.968 1918.23 798.091 1928.16 802.398 1937.94 z"/>
<path transform="translate(0,0)" fill="rgb(255,255,255)" d="M 633.868 1446.7 C 634.604 1447.08 635.263 1447.43 636.09 1447.57 C 643.191 1448.83 690.374 1443.88 695.95 1440.03 C 696.781 1440.28 698.033 1440.54 698.737 1441.03 C 701.364 1442.87 701.496 1468.25 702.063 1473.04 C 705.462 1501.73 706.518 1530.6 709.263 1559.35 L 726.284 1722.82 C 729.396 1752.24 731.564 1781.71 735.16 1811.09 C 738.908 1841.72 744.161 1872.27 749.567 1902.64 C 748.858 1902.86 748.064 1903.09 747.323 1903.15 C 742.751 1903.49 721.315 1898.61 717.696 1895.99 C 712.882 1893.76 709.107 1888.64 706.166 1884.32 C 698.26 1882.17 691.075 1872.35 683.056 1868.66 C 682.713 1868.5 682.366 1868.35 682.021 1868.2 C 671.236 1842.43 668.826 1811.46 665.152 1783.97 C 661.498 1756.62 658.017 1729.42 654.963 1702 C 653.399 1687.96 650.997 1674.01 649.506 1659.98 C 646.077 1627.7 644.082 1595.23 641.17 1562.9 C 637.704 1524.41 633.982 1485.36 633.868 1446.7 z"/>
<path transform="translate(0,0)" fill="rgb(255,255,255)" d="M 417.236 1857.69 C 419.652 1857.38 421.136 1856.61 423.127 1855.29 C 465.85 1826.95 512.016 1740.09 528.177 1691.65 C 530.976 1683.27 532.529 1674.36 534.299 1665.71 C 535.509 1666.75 535.889 1667.92 536.195 1669.46 C 537.153 1674.3 537.304 1679.42 538.113 1684.32 L 546.916 1736.16 C 550.38 1756.74 554.968 1777.15 558.27 1797.73 C 561.859 1820.1 564.27 1842.55 568.307 1864.92 C 569.897 1873.73 571.281 1883.49 574.388 1891.86 C 570.131 1890.37 555.001 1871.24 540.417 1865.23 C 534.347 1862.73 527.639 1860.9 521.116 1860.12 C 513.062 1859.15 499.206 1861.3 492.493 1857.24 C 491.85 1857.57 491.891 1857.57 491.072 1857.82 C 487.173 1859 430.499 1860.59 423.639 1859.92 C 421.357 1859.7 419.25 1858.72 417.236 1857.69 z"/>
<path transform="translate(0,0)" fill="rgb(255,255,255)" d="M 876.55 1902.62 C 876.35 1902.5 876.116 1902.42 875.95 1902.25 C 872.585 1898.9 870.305 1892.69 867.479 1888.66 C 854.95 1870.78 844.861 1860.7 847.532 1837.23 C 854.659 1839.17 865.151 1838.3 872.664 1838.61 C 899.175 1839.71 939.748 1840.37 962.95 1853.89 C 974.377 1860.64 982.617 1871.7 985.824 1884.58 C 986.772 1888.25 986.118 1892.95 984.069 1896.19 C 982.849 1898.12 982.516 1898.19 980.322 1898.74 C 974.22 1895.45 974.221 1874.67 967.048 1867.25 C 964.623 1864.74 962.243 1864.23 958.87 1864.2 C 956.495 1865.25 956.576 1865.12 955.566 1867.51 C 957.251 1871.58 958.852 1875.72 960.801 1879.67 L 961.056 1880.18 C 962.828 1887.14 963.548 1893.99 964.215 1901.12 C 963.945 1901.3 963.68 1901.48 963.405 1901.64 C 958.373 1904.7 952.228 1903.85 946.818 1902.61 C 946.431 1900.84 946.757 1898.41 946.57 1896.53 C 945.963 1890.43 943.757 1884.42 940.894 1879.04 C 939.044 1875.56 936.61 1871.15 932.646 1869.94 L 931.039 1870.95 C 927.759 1878.74 932.433 1893.54 934.47 1901.59 C 933.912 1901.94 933.89 1901.97 933.218 1902.3 C 926.544 1905.56 883.385 1905.01 876.55 1902.62 z"/>
<path transform="translate(0,0)" fill="rgb(255,255,255)" d="M 1121.28 1901.97 C 1121.12 1903.13 1120.93 1903.99 1120.47 1905.08 C 1118.75 1909.23 1091.35 1921.29 1085.82 1923.46 C 1038.39 1942.03 985.255 1942.88 935.229 1947.74 C 920.792 1949.14 906.441 1951.48 892.002 1952.78 C 880.755 1953.79 869.411 1953.57 858.172 1954.71 C 836.63 1956.89 815.024 1959.86 793.379 1960.8 C 730.213 1963.54 664.436 1960.79 601.075 1959.94 C 576.381 1959.61 551.712 1961.5 527.041 1960.74 C 509.945 1960.22 493.05 1957.92 476.005 1956.9 C 450.959 1955.41 426.075 1954.57 401.068 1952.1 C 345.802 1946.63 290.096 1936.73 235.898 1924.74 C 205.301 1917.97 174.839 1913.75 145.879 1900.89 C 141.185 1898.81 135.23 1896.52 133.295 1891.47 C 139.355 1876.52 180.992 1868.59 196.074 1867.28 C 205.01 1866.5 227.707 1868.48 234.348 1864.57 C 234.51 1864.47 234.664 1864.36 234.822 1864.26 C 242.262 1867.61 246.344 1885.22 249.374 1893.09 C 252.135 1900.26 254.707 1908.61 262.346 1911.84 C 269.71 1914.96 278.23 1916.44 285.995 1918.31 C 297.843 1921.16 309.799 1924.36 321.79 1926.53 C 359.285 1933.3 400.464 1936.38 438.474 1939.64 C 468.319 1942.2 499.835 1945.57 529.792 1943.61 C 539.604 1942.97 549.87 1941.09 559.015 1937.4 C 568.992 1933.38 575.25 1927.64 579.408 1917.74 C 583.717 1927.29 589.209 1936.31 598.303 1941.94 C 625.375 1958.73 673.047 1960.72 703.471 1953.45 C 710.926 1951.67 717.983 1948.02 722.003 1941.25 C 728.651 1930.04 725.03 1919.34 721.891 1907.65 C 722.298 1907.91 722.887 1908.32 723.343 1908.55 C 730.713 1912.42 745.081 1917.19 752.966 1914.96 C 755.11 1923.08 758.689 1932.57 764.053 1939.14 C 771.601 1948.39 786.151 1951.54 797.393 1952.66 C 817.522 1954.67 861.479 1952.34 877.146 1938.51 C 883.23 1933.13 882.389 1923.23 882.748 1915.78 C 890.129 1919.69 948.605 1916.83 960.839 1915.89 C 970.536 1915.15 987.559 1912.25 993.951 1903.96 C 1001.28 1894.44 997.483 1879.26 995.92 1868.52 C 1001.31 1871.25 1010.54 1871.08 1016.59 1871.85 C 1038.47 1874.63 1099.55 1878.97 1115.64 1892.84 C 1118.46 1895.28 1120.97 1898.16 1121.28 1901.97 z"/>
</svg>
